<svg width="309" height="77" viewBox="0 0 309 77" fill="none" xmlns="http://www.w3.org/2000/svg">
<g clip-path="url(#clip0_2825_46644)">
<path d="M38.5039 0L77.0217 38.5024V0H38.5039Z" fill="#FFDB53"/>
<path d="M77.0217 38.5L38.5039 77.0024V38.5H77.0217Z" fill="#FFDB53"/>
<path d="M38.5024 77.0024L0 38.5V77.0024H38.5024Z" fill="#FFDB53"/>
<path d="M112.942 16.7165L126.032 34.7233H117.229L108.149 21.5562L104.922 24.8288V34.7233H97.8086V4.16406H104.922V15.5489L115.907 4.16406H125.433L112.958 16.7165H112.942Z" fill="#FFDB53"/>
<path d="M140.596 22.6696H125.293V16.0938H140.596V22.6696Z" fill="#FFDB53"/>
<path d="M166.361 5.36272C168.251 6.17702 169.787 7.26787 171.001 8.68137C172.215 10.0949 173.106 11.7081 173.705 13.5518C174.289 15.3955 174.596 17.3467 174.596 19.4209C174.596 21.495 174.304 23.4616 173.705 25.3207C173.106 27.1797 172.215 28.8083 171.001 30.1911C169.787 31.5739 168.235 32.6801 166.361 33.5098C164.471 34.3241 162.243 34.7389 159.662 34.7389H146.664V4.17969H159.662C162.243 4.17969 164.486 4.57915 166.361 5.39345V5.36272ZM153.931 10.6172V28.2245H159.14C160.722 28.2245 162.044 28.0094 163.088 27.5792C164.133 27.149 164.993 26.5498 165.639 25.7663C166.284 24.9827 166.745 24.0608 167.006 22.9854C167.283 21.9099 167.406 20.7268 167.406 19.4362C167.406 18.1457 167.267 16.9626 167.006 15.8871C166.73 14.8116 166.284 13.8898 165.639 13.1062C164.993 12.3227 164.148 11.7235 163.088 11.2933C162.044 10.8631 160.722 10.648 159.14 10.648H153.931V10.6172Z" fill="#FFDB53"/>
<path d="M199.455 10.617H185.689V16.1942H199.01V22.6163H185.689V28.2242H199.455V34.7233H178.422V4.16406H199.455V10.6323V10.617Z" fill="#FFDB53"/>
<path d="M219.766 4.38461C221.072 4.92236 222.178 5.59837 223.084 6.39731C223.991 7.2116 224.698 8.08736 225.205 9.0553C225.712 10.0232 226.096 10.9451 226.341 11.8055L219.796 13.9872C219.72 13.4802 219.55 12.9885 219.305 12.5122C219.059 12.0359 218.736 11.6211 218.337 11.2677C217.937 10.899 217.461 10.6224 216.908 10.392C216.355 10.1769 215.725 10.054 215.033 10.0232C214.465 10.0232 213.943 10.0847 213.436 10.2076C212.944 10.3305 212.514 10.4995 212.145 10.73C211.776 10.9605 211.484 11.2524 211.269 11.6057C211.054 11.9591 210.947 12.3432 210.947 12.7734C210.916 13.6031 211.269 14.2791 212.022 14.7861C212.76 15.2931 213.789 15.7387 215.11 16.1228L218.26 17.0139C219.658 17.4134 220.918 17.8743 222.04 18.3813C223.161 18.8883 224.114 19.5183 224.913 20.2404C225.712 20.9625 226.311 21.8229 226.726 22.7908C227.14 23.7587 227.356 24.9111 227.356 26.2631C227.356 27.7227 227.064 29.0133 226.464 30.1348C225.865 31.2718 225.051 32.2244 224.006 33.0233C222.961 33.8222 221.702 34.4214 220.257 34.8209C218.798 35.2204 217.2 35.4201 215.448 35.4201C213.589 35.4201 211.915 35.1743 210.44 34.698C208.965 34.2217 207.674 33.561 206.583 32.7468C205.492 31.9325 204.601 30.9645 203.91 29.8737C203.219 28.7828 202.758 27.6305 202.512 26.4167L209.088 24.1582C209.349 25.0493 209.717 25.7868 210.194 26.4014C210.67 27.0006 211.192 27.5076 211.792 27.8763C212.376 28.2604 213.005 28.537 213.651 28.706C214.296 28.875 214.911 28.9672 215.51 28.9672C216.048 28.9672 216.601 28.9211 217.169 28.8443C217.738 28.7674 218.245 28.6138 218.69 28.3987C219.136 28.1836 219.504 27.9071 219.796 27.5537C220.088 27.2003 220.257 26.7701 220.288 26.2631C220.319 25.7254 220.227 25.2644 220.011 24.865C219.796 24.4655 219.504 24.1582 219.12 23.897C218.736 23.6358 218.306 23.4207 217.83 23.2517C217.338 23.0827 216.846 22.9291 216.339 22.7908L213.036 21.8997C211.684 21.5309 210.455 21.0854 209.318 20.563C208.181 20.056 207.213 19.4261 206.414 18.704C205.6 17.9818 204.985 17.1368 204.555 16.1842C204.125 15.2317 203.91 14.1255 203.91 12.8502C203.91 11.4828 204.171 10.223 204.693 9.07066C205.216 7.93372 205.969 6.95042 206.937 6.12076C207.905 5.30646 209.088 4.66116 210.47 4.23097C211.853 3.78541 213.405 3.57031 215.126 3.57031C216.846 3.57031 218.49 3.84687 219.781 4.38461H219.766Z" fill="#FFDB53"/>
<path d="M239.562 34.7233H232.172V4.16406H239.562V34.7233Z" fill="#FFDB53"/>
<path d="M264.987 4.23956C266.447 4.63903 267.753 5.2075 268.92 5.92962C270.088 6.65173 271.117 7.51212 272.009 8.51078C272.9 9.50945 273.652 10.6157 274.267 11.8294L267.845 15.0559C267.138 13.6578 266.155 12.5054 264.88 11.599C263.604 10.6925 262.037 10.2469 260.178 10.2469C258.826 10.2469 257.612 10.4928 256.522 10.9998C255.431 11.5068 254.509 12.1674 253.741 13.0125C252.972 13.8575 252.389 14.8562 251.989 15.9777C251.59 17.1147 251.39 18.2977 251.39 19.5729C251.39 20.925 251.59 22.1695 251.989 23.3064C252.389 24.4587 252.972 25.4267 253.741 26.2563C254.509 27.0706 255.431 27.7159 256.522 28.1768C257.612 28.6378 258.826 28.8682 260.178 28.8682C261.146 28.8682 262.053 28.7453 262.898 28.4995C263.743 28.2537 264.511 27.9464 265.202 27.5776C265.894 27.2089 266.493 26.7633 267.015 26.241C267.538 25.7186 267.968 25.2116 268.29 24.7045V23.6598H261.868V17.8522H274.544V34.7219H268.413V32.0639C268.014 32.5556 267.522 33.0012 266.954 33.4314C266.385 33.8615 265.74 34.2303 265.018 34.5376C264.296 34.8449 263.497 35.0907 262.636 35.2597C261.776 35.4287 260.854 35.5209 259.886 35.5209C257.551 35.5209 255.4 35.1214 253.449 34.3225C251.497 33.5235 249.823 32.4327 248.425 31.0192C247.026 29.6057 245.936 27.931 245.152 25.9644C244.368 24.0132 243.984 21.8776 243.984 19.5729C243.984 17.2683 244.384 15.0866 245.198 13.1354C246.012 11.1841 247.119 9.50945 248.548 8.08059C249.976 6.66709 251.682 5.57624 253.648 4.79267C255.63 4.0091 257.797 3.625 260.163 3.625C261.914 3.625 263.512 3.82473 264.972 4.2242L264.987 4.23956Z" fill="#FFDB53"/>
<path d="M306.71 34.7233H299.243L286.168 14.7346V34.7233H279.301V4.16406H286.768L299.858 24.1528V4.16406H306.726V34.7233H306.71Z" fill="#FFDB53"/>
<path d="M126.467 72.6686H119.046L116.496 65.4014H104.297L101.715 72.6686H94.1562L106.063 42.1094H114.621L126.452 72.6686H126.467ZM106.448 59.4708H114.406L110.442 48.3626L106.448 59.4708Z" fill="#FFDB53"/>
<path d="M156.835 72.6686H148.277L144.406 53.6478L140.457 72.6686H131.853L123.895 42.1094H131.438L136.324 64.9251L140.933 42.1094H147.832L152.441 64.9251L157.327 42.1094H164.84L156.851 72.6686H156.835Z" fill="#FFDB53"/>
<path d="M194.572 72.6686H187.151L184.601 65.4014H172.402L169.821 72.6686H162.262L174.169 42.1094H182.727L194.557 72.6686H194.572ZM174.553 59.4708H182.512L178.548 48.3626L174.553 59.4708Z" fill="#FFDB53"/>
<path d="M218.294 44.6754C220.276 46.3809 221.259 48.793 221.259 51.8812C221.259 54.0014 220.752 55.8298 219.738 57.3355C218.724 58.8411 217.157 60.0395 215.036 60.9307L222.104 72.6842H213.992L208.015 61.745H203.897V72.6842H196.707V42.125H209.551C213.392 42.125 216.312 42.9854 218.294 44.6908V44.6754ZM203.897 48.4089V55.5532H208.414C210.212 55.5532 211.61 55.2767 212.609 54.7082C213.608 54.1397 214.099 53.2025 214.099 51.8812C214.099 50.5599 213.608 49.6841 212.609 49.1771C211.61 48.6701 210.212 48.4089 208.414 48.4089H203.897Z" fill="#FFDB53"/>
<path d="M244.716 43.3237C246.606 44.138 248.142 45.2288 249.356 46.6423C250.57 48.0404 251.461 49.669 252.06 51.5127C252.644 53.3564 252.951 55.3077 252.951 57.3818C252.951 59.456 252.66 61.4226 252.06 63.2816C251.461 65.1407 250.57 66.7693 249.356 68.1521C248.142 69.5348 246.591 70.641 244.716 71.4707C242.827 72.285 240.599 72.6998 238.018 72.6998H225.02V42.1406H238.018C240.599 42.1406 242.842 42.5401 244.716 43.3544V43.3237ZM232.287 48.5782V66.1854H237.495C239.078 66.1854 240.399 65.9704 241.444 65.5402C242.489 65.11 243.349 64.5108 243.994 63.7272C244.639 62.9436 245.1 62.0218 245.362 60.9463C245.638 59.8708 245.761 58.6878 245.761 57.3972C245.761 56.1066 245.623 54.9236 245.362 53.8481C245.085 52.7726 244.639 51.8507 243.994 51.0672C243.349 50.2836 242.504 49.6844 241.444 49.2542C240.399 48.824 239.078 48.6089 237.495 48.6089H232.287V48.5782Z" fill="#FFDB53"/>
<path d="M302.761 56.075C303.806 56.5052 304.713 57.1044 305.481 57.8726C306.249 58.6408 306.848 59.5473 307.294 60.592C307.739 61.6368 307.954 62.7891 307.954 64.0336C307.954 65.2781 307.739 66.4304 307.294 67.4752C306.848 68.5353 306.249 69.4417 305.481 70.1946C304.713 70.9628 303.806 71.5466 302.761 71.9768C301.717 72.407 300.58 72.6221 299.366 72.6221C298.152 72.6221 297.015 72.407 295.97 71.9768C294.926 71.5466 294.019 70.9474 293.251 70.1946C292.483 69.4264 291.868 68.5199 291.438 67.4752C290.992 66.4304 290.777 65.2781 290.777 64.0336C290.777 62.7891 290.992 61.6368 291.438 60.592C291.884 59.5473 292.483 58.6408 293.251 57.8726C294.019 57.1044 294.926 56.5052 295.97 56.075C297.015 55.6448 298.152 55.4297 299.366 55.4297C300.58 55.4297 301.717 55.6448 302.761 56.075ZM296.693 57.7036C295.878 58.0723 295.171 58.5486 294.588 59.1632C294.004 59.7777 293.528 60.4998 293.205 61.3449C292.882 62.1899 292.713 63.081 292.713 64.049C292.713 65.0169 292.882 65.9541 293.205 66.7838C293.528 67.6288 293.988 68.3509 294.588 68.9655C295.187 69.58 295.894 70.0563 296.693 70.4097C297.507 70.7631 298.398 70.9474 299.366 70.9474C300.334 70.9474 301.225 70.7784 302.039 70.4097C302.854 70.0563 303.56 69.5647 304.144 68.9655C304.743 68.3509 305.204 67.6288 305.542 66.7838C305.88 65.9387 306.049 65.0323 306.049 64.049C306.049 63.0656 305.88 62.1899 305.542 61.3449C305.204 60.4998 304.743 59.7777 304.144 59.1632C303.545 58.5486 302.838 58.0723 302.039 57.7036C301.225 57.3348 300.334 57.1658 299.366 57.1658C298.398 57.1658 297.507 57.3502 296.693 57.7036ZM301.056 59.6702C301.471 59.7624 301.824 59.9314 302.131 60.1465C302.439 60.3769 302.684 60.6688 302.854 61.0222C303.038 61.3756 303.13 61.8058 303.13 62.3128C303.13 62.6815 303.084 63.0042 302.976 63.2961C302.869 63.588 302.731 63.8339 302.562 64.049C302.393 64.264 302.178 64.4331 301.932 64.5867C301.686 64.7403 301.409 64.8479 301.102 64.9401L303.207 68.5506H301.532L299.612 65.1398H297.676V68.5506H296.17V59.5319H299.704C300.18 59.5319 300.626 59.578 301.041 59.6702H301.056ZM297.691 60.8993V63.7724H299.612C299.873 63.7724 300.119 63.757 300.365 63.7109C300.61 63.6802 300.81 63.6034 301.01 63.5112C301.194 63.4037 301.348 63.2654 301.455 63.081C301.563 62.8966 301.624 62.6508 301.624 62.3435C301.624 62.0363 301.563 61.7904 301.455 61.6061C301.348 61.4217 301.194 61.2681 301.01 61.1759C300.826 61.0683 300.61 61.0069 300.365 60.9761C300.119 60.9454 299.873 60.9147 299.612 60.9147H297.691V60.8993Z" fill="#FFDB53"/>
</g>
<defs>
<clipPath id="clip0_2825_46644">
<rect width="309" height="77" fill="white"/>
</clipPath>
</defs>
</svg>
